<?xml version="1.0" encoding="UTF-8"?>
<svg id="Livello_1" data-name="Livello 1" xmlns="http://www.w3.org/2000/svg" viewBox="0 0 750 750">
  <defs>
    <style>
      .cls-1 {
        stroke-width: 0px;
      }

      .cls-2 {
        fill: #fff;
        stroke: #fff;
        stroke-miterlimit: 10;
        stroke-width: 12px;
      }
    </style>
  </defs>
  <rect class="cls-1" x="59" y="59" width="632" height="632" rx="80" ry="80"/>
  <path class="cls-2" d="M394.54,149.58l60.37,121.64c3.17,6.4,9.31,10.83,16.41,11.86l134.99,19.51c17.88,2.58,25.01,24.43,12.08,36.97l-97.68,94.68c-5.14,4.98-7.48,12.15-6.27,19.18l23.06,133.7c3.05,17.7-15.63,31.21-31.62,22.85l-120.74-63.12c-6.35-3.32-13.93-3.32-20.28,0l-120.74,63.12c-15.99,8.36-34.68-5.14-31.62-22.85l23.06-133.7c1.21-7.03-1.13-14.2-6.27-19.18l-97.68-94.68c-12.94-12.54-5.8-34.38,12.08-36.97l134.99-19.51c7.1-1.03,13.24-5.46,16.41-11.86l60.37-121.64c7.99-16.11,31.09-16.11,39.09,0Z"/>
</svg>